<svg width="38" height="37" viewBox="0 0 38 37" fill="none" xmlns="http://www.w3.org/2000/svg">
<path d="M29.7917 16.9583H8.20833C6.50546 16.9583 5.125 18.3388 5.125 20.0417V30.8333C5.125 32.5362 6.50546 33.9167 8.20833 33.9167H29.7917C31.4945 33.9167 32.875 32.5362 32.875 30.8333V20.0417C32.875 18.3388 31.4945 16.9583 29.7917 16.9583Z" stroke="#0075FF" stroke-width="4" stroke-linecap="round" stroke-linejoin="round"/>
<path d="M11.2915 16.9583V10.7917C11.2896 8.88007 11.998 7.03595 13.2793 5.61731C14.5606 4.19867 16.3232 3.30672 18.2252 3.1146C20.1271 2.92249 22.0325 3.44393 23.5716 4.57768C25.1107 5.71144 26.1736 7.37663 26.554 9.24999V16.9583" stroke="#0075FF" stroke-width="4" stroke-linecap="round" stroke-linejoin="round"/>
</svg>
